<svg width="263" height="500" viewBox="0 0 263 500" fill="none" xmlns="http://www.w3.org/2000/svg">
<g filter="url(#filter0_d_0_4453)">
<path fill-rule="evenodd" clip-rule="evenodd" d="M35.776 0.569458H227.009C245.35 0.569458 260.217 14.8048 260.217 32.365V467.635C260.217 485.195 245.35 499.431 227.009 499.431H35.776C17.4357 499.431 2.56787 485.195 2.56787 467.635V32.365C2.56787 14.8048 17.4357 0.569458 35.776 0.569458Z" fill="#213648"/>
</g>
<path opacity="0.595562" fill-rule="evenodd" clip-rule="evenodd" d="M227.749 0H34.9226C25.92 0.548956 17.6174 4.65694 10.0146 12.3239C14.9041 8.05589 23.6249 2.34456 35.1546 2.34456C35.1546 2.34456 219.83 2.34456 227.517 2.34456C239.046 2.34456 247.767 8.05589 252.656 12.3239C245.054 4.65694 236.751 0.548956 227.749 0Z" fill="url(#paint0_linear_0_4453)" fill-opacity="0.65"/>
<path opacity="0.75" fill-rule="evenodd" clip-rule="evenodd" d="M254.999 462.671V34.9818C254.999 23.5065 250.782 19.2644 248.266 16.5405C245.75 13.8166 245.643 12.4272 249.258 14.4839C252.873 16.5405 260.103 22.5306 260.103 34.9818V462.671C260.103 475.122 252.873 481.112 249.258 483.169C245.643 485.225 245.75 483.836 248.266 481.112C250.782 478.388 254.999 474.146 254.999 462.671Z" fill="url(#paint1_linear_0_4453)"/>
<path opacity="0.75" fill-rule="evenodd" clip-rule="evenodd" d="M7.67196 462.671V34.9818C7.67196 23.5065 11.8894 19.2644 14.4053 16.5405C16.9212 13.8166 17.0283 12.4272 13.4134 14.4839C9.79843 16.5405 2.56798 22.5306 2.56798 34.9818V462.671C2.56798 475.122 9.79843 481.112 13.4134 483.169C17.0283 485.225 16.9212 483.836 14.4053 481.112C11.8894 478.388 7.67196 474.146 7.67196 462.671Z" fill="url(#paint2_linear_0_4453)"/>
<path fill-rule="evenodd" clip-rule="evenodd" d="M0 103.556C0 102.452 0.89543 101.556 2 101.556H2.96454C4.06911 101.556 4.96454 102.452 4.96454 103.556V163.907C4.96454 165.012 4.06911 165.907 2.96454 165.907H2C0.89543 165.907 0 165.012 0 163.907V103.556Z" fill="#2E423C"/>
<path fill-rule="evenodd" clip-rule="evenodd" d="M257.535 156.043C257.535 154.939 258.431 154.043 259.535 154.043H260.5C261.605 154.043 262.5 154.939 262.5 156.043V198.993C262.5 200.098 261.605 200.993 260.5 200.993H259.535C258.431 200.993 257.535 200.098 257.535 198.993V156.043Z" fill="#2E423C"/>
<g clip-path="url(#clip0_0_4453)">
<path fill-rule="evenodd" clip-rule="evenodd" d="M108.676 12.4445L34.2698 12.4445C23.1653 12.4445 15.0742 20.0078 15.0742 29.8859V452.276C15.0742 465.155 27.5765 476.567 41.7134 476.567H221.046C234.664 476.567 247.686 465.067 247.686 452.276V31.0276C247.686 19.188 238.896 12.5149 228.49 12.4445L152.904 12.4445C152.618 12.4914 147.425 14.6262 145.231 20.0078C143.036 25.3893 138.621 29.6793 133.787 29.6793H128.172C125.874 29.6793 119.824 27.4496 116.76 20.0078C113.697 12.5659 108.963 12.4914 108.676 12.4445Z" fill="white"/>
<mask id="mask0_0_4453" style="mask-type:alpha" maskUnits="userSpaceOnUse" x="15" y="12" width="233" height="465">
<path fill-rule="evenodd" clip-rule="evenodd" d="M108.676 12.4445L34.2698 12.4445C23.1653 12.4445 15.0742 20.0078 15.0742 29.8859V452.276C15.0742 465.155 27.5765 476.567 41.7134 476.567H221.046C234.664 476.567 247.686 465.067 247.686 452.276V31.0276C247.686 19.188 238.896 12.5149 228.49 12.4445L152.904 12.4445C152.618 12.4914 147.425 14.6262 145.231 20.0078C143.036 25.3893 138.621 29.6793 133.787 29.6793H128.172C125.874 29.6793 119.824 27.4496 116.76 20.0078C113.697 12.5659 108.963 12.4914 108.676 12.4445Z" fill="white"/>
</mask>
<g mask="url(#mask0_0_4453)">
<rect x="15" y="12.4445" width="233" height="465" fill="url(#paint3_linear_0_4453)"/>
<path d="M94.504 141V123.672H90.376V121.032C91.6987 121.032 92.7653 120.909 93.576 120.664C94.3973 120.408 95.0107 120.045 95.416 119.576C95.8213 119.096 96.0613 118.525 96.136 117.864H99.24V141H94.504ZM104.496 141V138.696V137.512C104.496 136.339 104.714 135.325 105.152 134.472C105.589 133.608 106.165 132.861 106.88 132.232C107.605 131.592 108.394 131.032 109.248 130.552C110.112 130.072 110.976 129.619 111.84 129.192C112.704 128.765 113.493 128.339 114.208 127.912C114.933 127.475 115.514 126.989 115.952 126.456C116.389 125.923 116.608 125.293 116.608 124.568C116.608 123.64 116.282 122.883 115.632 122.296C114.992 121.709 114.112 121.416 112.992 121.416C111.829 121.416 110.842 121.752 110.032 122.424C109.221 123.096 108.72 124.109 108.528 125.464H104.064C104.085 123.992 104.426 122.659 105.088 121.464C105.76 120.259 106.762 119.304 108.096 118.6C109.429 117.896 111.104 117.544 113.12 117.544C114.848 117.544 116.336 117.837 117.584 118.424C118.842 119.011 119.813 119.827 120.496 120.872C121.178 121.917 121.52 123.139 121.52 124.536C121.52 125.699 121.306 126.701 120.88 127.544C120.453 128.387 119.888 129.107 119.184 129.704C118.48 130.301 117.706 130.824 116.864 131.272C116.021 131.72 115.178 132.136 114.336 132.52C113.504 132.904 112.736 133.299 112.032 133.704C111.328 134.099 110.762 134.547 110.336 135.048C109.909 135.549 109.696 136.152 109.696 136.856V137.064H121.488V141H104.496ZM129.704 124.856V129.864H124.584V124.856H129.704ZM129.704 135.912V140.904H124.584V135.912H129.704ZM143.451 117.864H148.043V131.96H151.611V135.88H148.043V141H143.547L143.563 135.88H132.907V132.04L143.451 117.864ZM137.227 131.96H143.563V123.48L137.227 131.96ZM162.435 141.352C160.995 141.352 159.651 141.075 158.403 140.52C157.155 139.965 156.137 139.187 155.347 138.184C154.558 137.171 154.115 135.987 154.019 134.632H158.467C158.659 135.528 159.086 136.259 159.747 136.824C160.409 137.379 161.241 137.656 162.243 137.656C163.353 137.656 164.323 137.395 165.155 136.872C165.998 136.349 166.627 135.517 167.043 134.376C167.47 133.235 167.619 131.741 167.491 129.896C167.193 130.461 166.777 130.957 166.243 131.384C165.721 131.8 165.107 132.125 164.403 132.36C163.699 132.584 162.915 132.696 162.051 132.696C160.483 132.696 159.091 132.403 157.875 131.816C156.67 131.219 155.721 130.376 155.027 129.288C154.345 128.189 154.003 126.888 154.003 125.384C154.003 123.869 154.366 122.52 155.091 121.336C155.817 120.152 156.83 119.224 158.131 118.552C159.433 117.88 160.958 117.544 162.707 117.544C164.67 117.544 166.361 118.013 167.779 118.952C169.209 119.88 170.302 121.203 171.059 122.92C171.827 124.627 172.211 126.637 172.211 128.952C172.211 131.715 171.817 134.019 171.027 135.864C170.249 137.699 169.129 139.075 167.667 139.992C166.206 140.899 164.462 141.352 162.435 141.352ZM162.851 128.984C163.502 128.984 164.131 128.84 164.739 128.552C165.358 128.253 165.865 127.88 166.259 127.432C166.654 126.984 166.851 126.52 166.851 126.04C166.862 125.005 166.697 124.12 166.355 123.384C166.025 122.637 165.555 122.067 164.947 121.672C164.35 121.277 163.651 121.08 162.851 121.08C162.115 121.08 161.459 121.251 160.883 121.592C160.307 121.933 159.854 122.413 159.523 123.032C159.193 123.651 159.027 124.365 159.027 125.176C159.027 126.381 159.379 127.32 160.083 127.992C160.787 128.653 161.71 128.984 162.851 128.984Z" fill="white"/>
</g>
</g>
<g filter="url(#filter1_d_0_4453)">
<rect x="22" y="167" width="218" height="87" rx="5" fill="#FBFCFE"/>
</g>
<g clip-path="url(#clip1_0_4453)">
<path d="M44.58 185.77L42.065 189.96V193H40.605V189.955L38.095 185.77H39.675L41.34 188.7L42.985 185.77H44.58ZM46.5677 193.1C46.061 193.1 45.6193 192.992 45.2427 192.775C44.8693 192.558 44.5793 192.252 44.3727 191.855C44.1693 191.458 44.0677 190.988 44.0677 190.445C44.0677 189.902 44.1693 189.427 44.3727 189.02C44.5793 188.613 44.8693 188.297 45.2427 188.07C45.6193 187.843 46.0627 187.73 46.5727 187.73C47.0827 187.73 47.5243 187.842 47.8977 188.065C48.271 188.285 48.5593 188.598 48.7627 189.005C48.966 189.412 49.0677 189.892 49.0677 190.445C49.0677 190.965 48.9677 191.425 48.7677 191.825C48.571 192.222 48.286 192.533 47.9127 192.76C47.5427 192.987 47.0943 193.1 46.5677 193.1ZM46.5727 192.015C46.8293 192.015 47.036 191.94 47.1927 191.79C47.3493 191.64 47.4627 191.443 47.5327 191.2C47.606 190.953 47.6427 190.685 47.6427 190.395C47.6427 190.122 47.6093 189.863 47.5427 189.62C47.4793 189.377 47.3693 189.18 47.2127 189.03C47.056 188.88 46.8427 188.805 46.5727 188.805C46.316 188.805 46.1077 188.877 45.9477 189.02C45.791 189.16 45.676 189.352 45.6027 189.595C45.5293 189.835 45.4927 190.102 45.4927 190.395C45.4927 190.665 45.526 190.925 45.5927 191.175C45.6593 191.422 45.771 191.623 45.9277 191.78C46.0843 191.937 46.2993 192.015 46.5727 192.015ZM51.8777 193.1C51.6377 193.1 51.401 193.063 51.1677 192.99C50.9377 192.917 50.7277 192.808 50.5377 192.665C50.3477 192.522 50.1943 192.345 50.0777 192.135C49.9643 191.925 49.9077 191.682 49.9077 191.405V187.83H51.3677V191.22C51.3677 191.46 51.446 191.657 51.6027 191.81C51.7593 191.963 51.9893 192.04 52.2927 192.04C52.5793 192.04 52.806 191.967 52.9727 191.82C53.1427 191.67 53.2277 191.462 53.2277 191.195V187.83H54.6727V193H53.5727L53.4027 191.975C53.3427 192.278 53.2293 192.512 53.0627 192.675C52.8993 192.835 52.711 192.945 52.4977 193.005C52.2877 193.068 52.081 193.1 51.8777 193.1ZM55.8906 193V187.83H57.2956V189.055C57.379 188.792 57.4956 188.562 57.6456 188.365C57.799 188.165 57.984 188.01 58.2006 187.9C58.4173 187.787 58.6623 187.73 58.9356 187.73C58.9823 187.73 59.0256 187.733 59.0656 187.74C59.109 187.743 59.1406 187.75 59.1606 187.76V189.15C59.1306 189.137 59.094 189.128 59.0506 189.125C59.0106 189.122 58.974 189.118 58.9406 189.115C58.654 189.092 58.409 189.1 58.2056 189.14C58.0023 189.18 57.8373 189.248 57.7106 189.345C57.584 189.442 57.4923 189.56 57.4356 189.7C57.379 189.84 57.3506 189.997 57.3506 190.17V193H55.8906ZM61.7223 193L64.3123 185.77H65.8523L68.4373 193H66.9823L66.3923 191.325H63.7923L63.1873 193H61.7223ZM64.1173 190.05H66.0423L65.0873 187.18L64.1173 190.05ZM69.3379 194.61V187.83H70.8029L70.8079 188.575C70.8846 188.452 70.9779 188.34 71.0879 188.24C71.2012 188.137 71.3262 188.047 71.4629 187.97C71.5996 187.893 71.7479 187.835 71.9079 187.795C72.0679 187.752 72.2362 187.73 72.4129 187.73C72.7962 187.73 73.1379 187.825 73.4379 188.015C73.7379 188.202 73.9729 188.492 74.1429 188.885C74.3162 189.275 74.4029 189.772 74.4029 190.375C74.4029 191.002 74.3096 191.517 74.1229 191.92C73.9396 192.32 73.6862 192.617 73.3629 192.81C73.0396 193.003 72.6746 193.1 72.2679 193.1C72.1012 193.1 71.9446 193.077 71.7979 193.03C71.6512 192.987 71.5146 192.925 71.3879 192.845C71.2646 192.765 71.1529 192.673 71.0529 192.57C70.9562 192.463 70.8712 192.348 70.7979 192.225V194.61H69.3379ZM71.9179 192.03C72.2346 192.03 72.4996 191.898 72.7129 191.635C72.9296 191.372 73.0379 190.955 73.0379 190.385C73.0379 189.885 72.9346 189.495 72.7279 189.215C72.5246 188.932 72.2546 188.79 71.9179 188.79C71.5412 188.79 71.2596 188.943 71.0729 189.25C70.8896 189.553 70.7979 189.932 70.7979 190.385C70.7979 190.675 70.8379 190.945 70.9179 191.195C71.0012 191.445 71.1246 191.647 71.2879 191.8C71.4546 191.953 71.6646 192.03 71.9179 192.03ZM75.373 194.61V187.83H76.838L76.843 188.575C76.9197 188.452 77.013 188.34 77.123 188.24C77.2364 188.137 77.3614 188.047 77.498 187.97C77.6347 187.893 77.783 187.835 77.943 187.795C78.103 187.752 78.2714 187.73 78.448 187.73C78.8314 187.73 79.173 187.825 79.473 188.015C79.773 188.202 80.008 188.492 80.178 188.885C80.3514 189.275 80.438 189.772 80.438 190.375C80.438 191.002 80.3447 191.517 80.158 191.92C79.9747 192.32 79.7214 192.617 79.398 192.81C79.0747 193.003 78.7097 193.1 78.303 193.1C78.1364 193.1 77.9797 193.077 77.833 193.03C77.6864 192.987 77.5497 192.925 77.423 192.845C77.2997 192.765 77.188 192.673 77.088 192.57C76.9914 192.463 76.9064 192.348 76.833 192.225V194.61H75.373ZM77.953 192.03C78.2697 192.03 78.5347 191.898 78.748 191.635C78.9647 191.372 79.073 190.955 79.073 190.385C79.073 189.885 78.9697 189.495 78.763 189.215C78.5597 188.932 78.2897 188.79 77.953 188.79C77.5764 188.79 77.2947 188.943 77.108 189.25C76.9247 189.553 76.833 189.932 76.833 190.385C76.833 190.675 76.873 190.945 76.953 191.195C77.0364 191.445 77.1597 191.647 77.323 191.8C77.4897 191.953 77.6997 192.03 77.953 192.03Z" fill="#BA4270"/>
<path opacity="0.5" d="M185.609 191.295C185.609 191.678 185.566 192.005 185.479 192.275C185.392 192.545 185.237 192.75 185.014 192.89C184.794 193.03 184.481 193.1 184.074 193.1C183.817 193.1 183.576 193.07 183.349 193.01C183.126 192.95 182.977 192.905 182.904 192.875L182.969 191.99C183.072 192.027 183.191 192.073 183.324 192.13C183.461 192.183 183.629 192.21 183.829 192.21C184.156 192.21 184.379 192.12 184.499 191.94C184.622 191.76 184.684 191.457 184.684 191.03V185.77H185.609V191.295ZM189.041 193.1C188.771 193.097 188.516 193.058 188.276 192.985C188.039 192.908 187.829 192.797 187.646 192.65C187.462 192.503 187.317 192.322 187.211 192.105C187.107 191.885 187.056 191.63 187.056 191.34V187.83H187.981V191.245C187.981 191.582 188.084 191.855 188.291 192.065C188.501 192.275 188.816 192.38 189.236 192.38C189.616 192.38 189.921 192.282 190.151 192.085C190.384 191.885 190.501 191.588 190.501 191.195V187.83H191.421V193H190.686L190.591 192.01C190.527 192.27 190.419 192.48 190.266 192.64C190.116 192.8 189.934 192.918 189.721 192.995C189.511 193.068 189.284 193.103 189.041 193.1ZM194.698 193.1C194.338 193.1 194.003 193.045 193.693 192.935C193.387 192.822 193.132 192.647 192.928 192.41C192.725 192.17 192.597 191.865 192.543 191.495H193.383C193.43 191.698 193.513 191.868 193.633 192.005C193.757 192.138 193.91 192.24 194.093 192.31C194.277 192.377 194.477 192.41 194.693 192.41C195.04 192.41 195.32 192.345 195.533 192.215C195.747 192.085 195.853 191.885 195.853 191.615C195.853 191.425 195.797 191.273 195.683 191.16C195.573 191.043 195.402 190.958 195.168 190.905L194.098 190.64C193.682 190.54 193.348 190.383 193.098 190.17C192.848 189.957 192.723 189.658 192.723 189.275C192.72 188.972 192.792 188.705 192.938 188.475C193.085 188.245 193.305 188.063 193.598 187.93C193.892 187.797 194.257 187.73 194.693 187.73C195.253 187.73 195.705 187.857 196.048 188.11C196.395 188.36 196.575 188.728 196.588 189.215H195.773C195.74 188.968 195.628 188.773 195.438 188.63C195.252 188.483 195 188.41 194.683 188.41C194.353 188.41 194.085 188.477 193.878 188.61C193.672 188.74 193.568 188.943 193.568 189.22C193.568 189.403 193.642 189.548 193.788 189.655C193.935 189.758 194.152 189.845 194.438 189.915L195.473 190.175C195.713 190.238 195.91 190.322 196.063 190.425C196.22 190.528 196.343 190.643 196.433 190.77C196.527 190.897 196.592 191.03 196.628 191.17C196.668 191.307 196.688 191.438 196.688 191.565C196.688 191.882 196.608 192.155 196.448 192.385C196.292 192.612 196.065 192.788 195.768 192.915C195.475 193.038 195.118 193.1 194.698 193.1ZM200.5 188.505H199.335V191.72C199.335 191.903 199.353 192.038 199.39 192.125C199.43 192.208 199.495 192.262 199.585 192.285C199.678 192.308 199.805 192.32 199.965 192.32H200.53V192.94C200.466 192.963 200.37 192.983 200.24 193C200.113 193.017 199.955 193.025 199.765 193.025C199.408 193.025 199.131 192.977 198.935 192.88C198.738 192.783 198.6 192.64 198.52 192.45C198.443 192.26 198.405 192.027 198.405 191.75V188.505H197.565V187.83H198.43L198.655 186.325H199.335V187.825H200.5V188.505ZM209.028 185.77H209.953V193H209.128L205.248 187.3V193H204.323V185.77H205.208L209.028 191.39V185.77ZM213.659 193.1C213.182 193.1 212.765 192.998 212.409 192.795C212.052 192.588 211.775 192.287 211.579 191.89C211.382 191.493 211.284 191.008 211.284 190.435C211.284 189.895 211.375 189.422 211.559 189.015C211.742 188.608 212.01 188.293 212.364 188.07C212.72 187.843 213.152 187.73 213.659 187.73C214.135 187.73 214.549 187.835 214.899 188.045C215.252 188.252 215.525 188.557 215.719 188.96C215.912 189.363 216.009 189.855 216.009 190.435C216.009 190.962 215.919 191.425 215.739 191.825C215.562 192.225 215.299 192.538 214.949 192.765C214.602 192.988 214.172 193.1 213.659 193.1ZM213.659 192.37C213.969 192.37 214.23 192.292 214.444 192.135C214.657 191.978 214.819 191.753 214.929 191.46C215.039 191.167 215.094 190.818 215.094 190.415C215.094 190.045 215.045 189.713 214.949 189.42C214.852 189.123 214.697 188.888 214.484 188.715C214.274 188.542 213.999 188.455 213.659 188.455C213.345 188.455 213.08 188.533 212.864 188.69C212.647 188.843 212.482 189.067 212.369 189.36C212.259 189.653 212.204 190.005 212.204 190.415C212.204 190.778 212.254 191.108 212.354 191.405C212.454 191.702 212.61 191.937 212.824 192.11C213.037 192.283 213.315 192.37 213.659 192.37ZM223.833 187.83L222.268 193H221.358L220.178 189.185L219.058 193H218.153L216.558 187.83H217.413L218.598 191.805H218.678L219.843 187.83H220.543L221.753 191.795H221.833L222.968 187.83H223.833Z" fill="#36536B"/>
</g>
<defs>
<filter id="filter0_d_0_4453" x="-52.4321" y="-54.4305" width="417.649" height="658.861" filterUnits="userSpaceOnUse" color-interpolation-filters="sRGB">
<feFlood flood-opacity="0" result="BackgroundImageFix"/>
<feColorMatrix in="SourceAlpha" type="matrix" values="0 0 0 0 0 0 0 0 0 0 0 0 0 0 0 0 0 0 127 0" result="hardAlpha"/>
<feOffset dx="25" dy="25"/>
<feGaussianBlur stdDeviation="40"/>
<feColorMatrix type="matrix" values="0 0 0 0 0.212302 0 0 0 0 0.32521 0 0 0 0 0.419299 0 0 0 0.300727 0"/>
<feBlend mode="normal" in2="BackgroundImageFix" result="effect1_dropShadow_0_4453"/>
<feBlend mode="normal" in="SourceGraphic" in2="effect1_dropShadow_0_4453" result="shape"/>
</filter>
<filter id="filter1_d_0_4453" x="17" y="162" width="248" height="117" filterUnits="userSpaceOnUse" color-interpolation-filters="sRGB">
<feFlood flood-opacity="0" result="BackgroundImageFix"/>
<feColorMatrix in="SourceAlpha" type="matrix" values="0 0 0 0 0 0 0 0 0 0 0 0 0 0 0 0 0 0 127 0" result="hardAlpha"/>
<feMorphology radius="10" operator="erode" in="SourceAlpha" result="effect1_dropShadow_0_4453"/>
<feOffset dx="10" dy="10"/>
<feGaussianBlur stdDeviation="12.5"/>
<feColorMatrix type="matrix" values="0 0 0 0 0.212302 0 0 0 0 0.32521 0 0 0 0 0.419299 0 0 0 0.25 0"/>
<feBlend mode="normal" in2="BackgroundImageFix" result="effect1_dropShadow_0_4453"/>
<feBlend mode="normal" in="SourceGraphic" in2="effect1_dropShadow_0_4453" result="shape"/>
</filter>
<linearGradient id="paint0_linear_0_4453" x1="10.0146" y1="0" x2="10.0146" y2="12.3239" gradientUnits="userSpaceOnUse">
<stop stop-color="#454545"/>
<stop offset="0.226279" stop-color="#999999"/>
<stop offset="1" stop-color="white"/>
</linearGradient>
<linearGradient id="paint1_linear_0_4453" x1="260.103" y1="85.7474" x2="250.642" y2="85.7474" gradientUnits="userSpaceOnUse">
<stop stop-color="white" stop-opacity="0.01"/>
<stop offset="0.222178" stop-color="#BABABA"/>
<stop offset="0.54678" stop-color="white" stop-opacity="0.01"/>
<stop offset="1" stop-color="white" stop-opacity="0.01"/>
</linearGradient>
<linearGradient id="paint2_linear_0_4453" x1="2.56798" y1="85.4868" x2="12.044" y2="85.4868" gradientUnits="userSpaceOnUse">
<stop stop-color="white" stop-opacity="0.01"/>
<stop offset="0.222178" stop-color="#BABABA"/>
<stop offset="0.54678" stop-color="white" stop-opacity="0.01"/>
<stop offset="1" stop-color="white" stop-opacity="0.01"/>
</linearGradient>
<linearGradient id="paint3_linear_0_4453" x1="15.907" y1="12.4445" x2="15.907" y2="473.824" gradientUnits="userSpaceOnUse">
<stop stop-color="#9CB6CD"/>
<stop offset="0.420564" stop-color="#9AB3CA"/>
<stop offset="0.716592" stop-color="#557496"/>
<stop offset="1" stop-color="#475178"/>
</linearGradient>
<clipPath id="clip0_0_4453">
<rect width="233" height="465" fill="white" transform="translate(15.0742 12.4445)"/>
</clipPath>
<clipPath id="clip1_0_4453">
<rect width="187" height="11" fill="white" transform="translate(38 183)"/>
</clipPath>
</defs>
</svg>
